<svg xmlns="http://www.w3.org/2000/svg" width="160" height="38" viewBox="0 0 160 38">
    <g fill="none" fill-rule="evenodd">
        <path fill="#93A4AA" d="M50.958 33.69h-1.883V14.139h5.44c.905 0 1.746.092 2.522.275.776.185 1.447.484 2.014.898.566.414 1.007.953 1.32 1.616.314.662.471 1.473.471 2.43 0 .718-.122 1.371-.366 1.96-.244.59-.575 1.1-.993 1.533-.419.433-.916.778-1.491 1.035-.575.259-1.203.424-1.883.497l5.413 9.307h-2.301l-5.125-9.14h-3.138v9.14zm0-10.853h3.268c1.517 0 2.685-.29 3.504-.87.82-.58 1.23-1.45 1.23-2.61 0-.644-.114-1.187-.34-1.628-.227-.443-.54-.801-.942-1.078-.401-.276-.889-.478-1.464-.607-.576-.129-1.212-.193-1.91-.193h-3.346v6.986zM78.583 17.673c-.645-.718-1.412-1.274-2.301-1.67-.89-.397-1.91-.595-3.06-.595-1.186 0-2.253.23-3.203.69-.95.46-1.757 1.08-2.42 1.862-.662.78-1.172 1.686-1.529 2.715-.357 1.03-.536 2.113-.536 3.253 0 1.14.179 2.224.536 3.253.357 1.03.867 1.93 1.53 2.702.662.772 1.468 1.388 2.419 1.847.95.46 2.017.69 3.203.69 1.046 0 2.005-.12 2.877-.36.871-.238 1.577-.542 2.118-.91v-5.938h-4.315v-1.767H80.1v8.832c-1.01.646-2.1 1.125-3.268 1.44-1.168.313-2.38.47-3.635.47-1.395 0-2.685-.258-3.87-.773-1.186-.515-2.206-1.23-3.06-2.14-.855-.912-1.52-1.993-2-3.245s-.72-2.624-.72-4.115c0-1.49.245-2.862.733-4.115.487-1.251 1.163-2.333 2.026-3.244.863-.911 1.883-1.625 3.06-2.14 1.177-.516 2.454-.773 3.831-.773 1.482 0 2.772.233 3.87.701 1.099.468 2.04 1.117 2.825 1.95l-1.308 1.38M85.999 31.922L95.91 31.922 95.91 33.69 84.116 33.69 84.116 14.138 95.596 14.138 95.596 15.906 85.999 15.906 85.999 22.616 94.969 22.616 94.969 24.384 85.999 24.384 85.999 31.922M112.327 30.791L112.38 30.791 112.38 14.138 114.262 14.138 114.262 33.69 111.909 33.69 101.135 16.872 101.082 16.872 101.082 33.69 99.2 33.69 99.2 14.138 101.553 14.138 112.327 30.791M125.512 33.69L123.63 33.69 123.63 15.906 117.432 15.906 117.432 14.139 131.71 14.139 131.71 15.906 125.512 15.906 125.512 33.69M136.807 31.922L145.437 31.922 145.437 33.69 134.924 33.69 134.924 14.138 136.807 14.138 136.807 31.922M152.262 33.69L150.379 33.69 150.379 25.268 143.449 14.139 145.803 14.139 151.373 23.61 156.995 14.139 159.192 14.139 152.262 25.268 152.262 33.69M44.359 14.138V30.33c0 .47-.084.906-.25 1.31-.167.404-.393.76-.68 1.065-.286.305-.62.547-1.003.722-.383.176-.79.264-1.223.264h-7.146c-.432 0-.84-.088-1.222-.264-.383-.175-.718-.417-1.004-.722-.287-.306-.515-.66-.684-1.065-.17-.404-.254-.84-.254-1.31V14.138h1.937V30.33c0 .37.12.682.36.936.24.252.529.379.867.379h7.146c.333 0 .619-.127.859-.38s.36-.565.36-.935V14.138h1.937" transform="translate(0 -1.876)"/>
        <g fill="#F58410">
            <path d="M22.416 10.739c1.193 1.181 1.475 3.15.416 4.524l-.043.046-5.363 5.688-.008-.006c1.06-1.374.69-3.26-.453-4.523l-.37-.401-3.218-3.375V1.25l7.05 7.402 1.99 2.087v20.185" transform="translate(0 -1.876) translate(0 .625)"/>
            <path d="M11.252 25.108l-.062-.063c1.19 1.25 3.139 1.25 4.329 0l-.055.058 11.143-11.712v11.441L13.357 38.76 0 24.721V13.28l11.252 11.828" transform="translate(0 -1.876) translate(0 .625)"/>
        </g>
    </g>
</svg>
